<svg height="55" viewBox="0 0 156 55" width="156" xmlns="http://www.w3.org/2000/svg" xmlns:xlink="http://www.w3.org/1999/xlink"><defs><path id="a" d="m0 0h156v55h-156z"/><mask id="b" fill="#fff"><use fill="#fff" fill-rule="evenodd" xlink:href="#a"/></mask></defs><g fill="none" fill-rule="evenodd"><use fill="#f0f2f5" xlink:href="#a"/><g mask="url(#b)"><g stroke="#e6eef8" transform="translate(1.151953 -66.410341)"><g fill-rule="evenodd" transform="translate(0 55)"><path d="m153.200524 54.2477064c0 8.3984273-3.998689 15.863827-10.19135 20.6068152-.365662.3055046-.743119.5897772-1.155963.8374836l-.011796.010616c-1.486238.9094365-3.231979 1.4272608-5.10747 1.4272608-5.42595 0-9.837484-4.4103538-9.837484-9.836304 0-5.4389253 4.411534-9.8374836 9.837484-9.8374836 2.017038 0 3.892529.6003931 5.461337 1.6513761.731324.3762779 1.568807.5897772 2.453473.5897772 3.007864 0 5.437746-2.4416776 5.437746-5.4495413 0-3.0090432-2.429882-5.4377457-5.437746-5.4377457h-62.1861076c-2.3944954 0-4.5176933 1.1323722-5.8612057 2.9017038-1.3458716-1.7693316-3.4690695-2.9017038-5.8635649-2.9017038h-44.7994758c-14.3315858 0-25.938401-11.6186108-25.938401-25.9395806 0-8.3984273 3.99986894-15.86500657 10.1925295-20.59501968.3644823-.30550459.7431193-.5897772 1.1547837-.84809961h.0117956c1.4874181-.90943643 3.231979-1.42726081 5.1074705-1.42726081 5.4271297 0 9.8374836 4.39855832 9.8374836 9.83748362 0 5.42477068-4.4103539 9.82568808-9.8374836 9.82568808-2.017038 0-3.8925295-.6015727-5.4613368-1.6395806v-.0129751c-.7313238-.3644823-1.56880738-.5768021-2.45347317-.5768021-3.00786369 0-5.43656618 2.440498-5.43656618 5.4365662 0 3.0078637 2.42870249 5.4507208 5.43656618 5.4507208h62.18610747c2.3944954 0 4.5176933-1.1441677 5.8635649-2.9134993 1.3435124 1.7693316 3.4667103 2.9134993 5.8612057 2.9134993h44.8124506c14.318611 0 25.925426 11.6056357 25.925426 25.9266055z"/><path d="m31.9787811 65.9130275c0-.8598951.6947576-1.5570118 1.5558323-1.5570118h3.5150721c1.9344692 0 3.4914809-1.5688073 3.4914809-3.491481v-12.0550458h20.4888598v12.0550458c0 1.9226737 1.5699869 3.491481 3.491481 3.491481h3.5280472c.8480996 0 1.5558322.6971167 1.5558322 1.5570118"/><g stroke-linecap="round" stroke-linejoin="round"><path d="m69.6053866 11.2169725c0 .8610747-.7077326 1.5570118-1.5558322 1.5570118h-3.5280472c-1.9214941 0-3.491481 1.5581913-3.491481 3.491481v12.0550458h-20.4888598v-12.0550458c0-1.9332897-1.5570117-3.491481-3.4914809-3.491481h-3.5150721c-.8610747 0-1.5558323-.6959371-1.5558323-1.5570118"/><path d="m83.6063434 65.9130275c0-.8598951.6841415-1.5570118 1.5463958-1.5570118h3.5256881c1.9238532 0 3.4926605-1.5688073 3.4926605-3.491481v-12.0550458h20.4876802v12.0550458c0 1.9226737 1.558191 3.491481 3.491481 3.491481h3.516252c.859895 0 1.557011.6971167 1.557011 1.5570118"/><path d="m121.223984 11.2169725c0 .8610747-.697116 1.5570118-1.558191 1.5570118h-3.515072c-1.934469 0-3.491481 1.5581913-3.491481 3.491481v12.0550458h-20.4876804v-12.0550458c0-1.9332897-1.5581913-3.491481-3.4926605-3.491481h-3.5256881c-.8622543 0-1.5463958-.6959371-1.5463958-1.5570118"/><path d="m31.978781 65.913028h37.626606"/><path d="m83.978781 65.913028h37.245203"/></g></g><g fill-rule="evenodd" transform="translate(0 110)"><path d="m153.200524 54.2477064c0 8.3984273-3.998689 15.863827-10.19135 20.6068152-.365662.3055046-.743119.5897772-1.155963.8374836l-.011796.010616c-1.486238.9094365-3.231979 1.4272608-5.10747 1.4272608-5.42595 0-9.837484-4.4103538-9.837484-9.836304 0-5.4389253 4.411534-9.8374836 9.837484-9.8374836 2.017038 0 3.892529.6003931 5.461337 1.6513761.731324.3762779 1.568807.5897772 2.453473.5897772 3.007864 0 5.437746-2.4416776 5.437746-5.4495413 0-3.0090432-2.429882-5.4377457-5.437746-5.4377457h-62.1861076c-2.3944954 0-4.5176933 1.1323722-5.8612057 2.9017038-1.3458716-1.7693316-3.4690695-2.9017038-5.8635649-2.9017038h-44.7994758c-14.3315858 0-25.938401-11.6186108-25.938401-25.9395806 0-8.3984273 3.99986894-15.86500657 10.1925295-20.59501968.3644823-.30550459.7431193-.5897772 1.1547837-.84809961h.0117956c1.4874181-.90943643 3.231979-1.42726081 5.1074705-1.42726081 5.4271297 0 9.8374836 4.39855832 9.8374836 9.83748362 0 5.42477068-4.4103539 9.82568808-9.8374836 9.82568808-2.017038 0-3.8925295-.6015727-5.4613368-1.6395806v-.0129751c-.7313238-.3644823-1.56880738-.5768021-2.45347317-.5768021-3.00786369 0-5.43656618 2.440498-5.43656618 5.4365662 0 3.0078637 2.42870249 5.4507208 5.43656618 5.4507208h62.18610747c2.3944954 0 4.5176933-1.1441677 5.8635649-2.9134993 1.3435124 1.7693316 3.4667103 2.9134993 5.8612057 2.9134993h44.8124506c14.318611 0 25.925426 11.6056357 25.925426 25.9266055z"/><path d="m69.6053866 11.2169725c0 .8610747-.7077326 1.5570118-1.5558322 1.5570118h-3.5280472c-1.9214941 0-3.491481 1.5581913-3.491481 3.491481v12.0550458h-20.4888598v-12.0550458c0-1.9332897-1.5570117-3.491481-3.4914809-3.491481h-3.5150721c-.8610747 0-1.5558323-.6959371-1.5558323-1.5570118" stroke-linecap="round" stroke-linejoin="round"/><path d="m121.223984 11.2169725c0 .8610747-.697116 1.5570118-1.558191 1.5570118h-3.515072c-1.934469 0-3.491481 1.5581913-3.491481 3.491481v12.0550458h-20.4876804v-12.0550458c0-1.9332897-1.5581913-3.491481-3.4926605-3.491481h-3.5256881c-.8622543 0-1.5463958-.6959371-1.5463958-1.5570118" stroke-linecap="round" stroke-linejoin="round"/><path d="m31.978781 11.216973h37.626606"/><path d="m83.978781 11.216973h37.245203" stroke-linecap="round" stroke-linejoin="round"/></g><path d="m153.200524 54.2477064c0 8.3984273-3.998689 15.863827-10.19135 20.6068152-.365662.3055046-.743119.5897772-1.155963.8374836l-.011796.010616c-1.486238.9094365-3.231979 1.4272608-5.10747 1.4272608-5.42595 0-9.837484-4.4103538-9.837484-9.836304 0-5.4389253 4.411534-9.8374836 9.837484-9.8374836 2.017038 0 3.892529.6003931 5.461337 1.6513761.731324.3762779 1.568807.5897772 2.453473.5897772 3.007864 0 5.437746-2.4416776 5.437746-5.4495413 0-3.0090432-2.429882-5.4377457-5.437746-5.4377457h-62.1861076c-2.3944954 0-4.5176933 1.1323722-5.8612057 2.9017038-1.3458716-1.7693316-3.4690695-2.9017038-5.8635649-2.9017038h-44.7994758c-14.3315858 0-25.938401-11.6186108-25.938401-25.9395806 0-8.3984273 3.99986894-15.86500657 10.1925295-20.59501968.3644823-.30550459.7431193-.5897772 1.1547837-.84809961h.0117956c1.4874181-.90943643 3.231979-1.42726081 5.1074705-1.42726081 5.4271297 0 9.8374836 4.39855832 9.8374836 9.83748362 0 5.42477068-4.4103539 9.82568808-9.8374836 9.82568808-2.017038 0-3.8925295-.6015727-5.4613368-1.6395806v-.0129751c-.7313238-.3644823-1.56880738-.5768021-2.45347317-.5768021-3.00786369 0-5.43656618 2.440498-5.43656618 5.4365662 0 3.0078637 2.42870249 5.4507208 5.43656618 5.4507208h62.18610747c2.3944954 0 4.5176933-1.1441677 5.8635649-2.9134993 1.3435124 1.7693316 3.4667103 2.9134993 5.8612057 2.9134993h44.8124506c14.318611 0 25.925426 11.6056357 25.925426 25.9266055z"/></g></g></g></svg>